<?xml version="1.0" encoding="UTF-8" standalone="no"?>
<!-- Created with Inkscape (http://www.inkscape.org/) -->

<svg
   xmlns:dc="http://purl.org/dc/elements/1.1/"
   xmlns:cc="http://creativecommons.org/ns#"
   xmlns:rdf="http://www.w3.org/1999/02/22-rdf-syntax-ns#"
   xmlns:svg="http://www.w3.org/2000/svg"
   xmlns="http://www.w3.org/2000/svg"
   xmlns:sodipodi="http://sodipodi.sourceforge.net/DTD/sodipodi-0.dtd"
   xmlns:inkscape="http://www.inkscape.org/namespaces/inkscape"
   width="20mm"
   height="20mm"
   viewBox="0 0 20 20"
   version="1.1"
   id="svg4985"
   inkscape:version="0.92.0 r15299"
   sodipodi:docname="brush scissors.svg">
  <defs
     id="defs4979" />
  <sodipodi:namedview
     id="base"
     pagecolor="#ffffff"
     bordercolor="#666666"
     borderopacity="1.0"
     inkscape:pageopacity="0.0"
     inkscape:pageshadow="2"
     inkscape:zoom="1.979899"
     inkscape:cx="104.60261"
     inkscape:cy="45.661151"
     inkscape:document-units="mm"
     inkscape:current-layer="layer1"
     showgrid="false"
     inkscape:window-width="1366"
     inkscape:window-height="705"
     inkscape:window-x="-8"
     inkscape:window-y="-8"
     inkscape:window-maximized="1" />
  <metadata
     id="metadata4982">
    <rdf:RDF>
      <cc:Work
         rdf:about="">
        <dc:format>image/svg+xml</dc:format>
        <dc:type
           rdf:resource="http://purl.org/dc/dcmitype/StillImage" />
        <dc:title></dc:title>
      </cc:Work>
    </rdf:RDF>
  </metadata>
  <g
     inkscape:label="Layer 1"
     inkscape:groupmode="layer"
     id="layer1"
     transform="translate(0,-277)">
    <path
       style="fill:#999999;stroke:none;stroke-width:0.26458332px;stroke-linecap:butt;stroke-linejoin:miter;stroke-opacity:1"
       d="m 10.938737,285.75303 c -0.297929,-0.25843 -0.263308,-0.45138 -0.432575,-0.74155 -0.469069,-0.0936 -0.988353,-0.37652 -1.297722,-0.49438 -0.253273,0.41858 -0.192059,0.69141 -0.308982,1.11234 0.408631,-0.13265 0.823937,0.0915 1.112334,0.12359 0.19724,0.3326 0.194581,0.50591 0.308982,0.80336 1.344635,0.5122 2.664451,0.99183 3.954971,1.54491 0.86709,0.0439 1.890151,-0.0269 2.657246,-0.0618 -2.146024,-0.94275 -4.787427,-1.80037 -5.994254,-2.28647 z"
       id="path226"
       inkscape:connector-curvature="0"
       sodipodi:nodetypes="ccccccccc" />
    <path
       style="fill:#808080;stroke:none;stroke-width:0.26458332px;stroke-linecap:butt;stroke-linejoin:miter;stroke-opacity:1"
       d="m 16.253229,284.5171 c -0.769906,-0.0376 -1.938773,0.18539 -2.59545,0.18539 -1.175492,0.59698 -1.986896,0.92952 -3.337005,1.29773 0.02819,0.91371 -0.4889965,1.14751 -0.741556,1.60671 -0.329243,0.0596 -0.446275,0.22313 -0.617964,0.30898 0.113979,0.19766 0.04123,0.41228 0.0618,0.61796 0.8570795,0.0803 1.164342,-0.48387 1.606702,-0.80335 -0.07909,-0.28631 0.04536,-0.54426 0.0618,-0.74156 1.964271,-0.9311 3.866597,-1.70907 5.561673,-2.47186 z"
       id="path228"
       inkscape:connector-curvature="0"
       sodipodi:nodetypes="ccccccccc" />
    <path
       style="fill:#000000;stroke:none;stroke-width:0.26458332px;stroke-linecap:butt;stroke-linejoin:miter;stroke-opacity:1"
       d="m 9.332033,285.50585 c -0.109678,0.25712 -0.04117,0.53526 -0.0618,0.80335 0.144192,0 0.288386,0 0.432578,0 0.1082685,-0.30195 0.041189,-0.61777 0.061799,-0.92695"
       id="path230"
       inkscape:connector-curvature="0" />
    <path
       style="fill:#000000;stroke:none;stroke-width:0.26458332px;stroke-linecap:butt;stroke-linejoin:miter;stroke-opacity:1"
       d="m 9.7646065,287.66872 c 0.05647,-0.26977 -0.1457475,-0.63157 -0.1853905,-0.80335 -0.14419,0 -0.288382,0 -0.432573,0 0.06623,0.39629 0.155777,0.54522 0.247186,0.86515"
       id="path232"
       inkscape:connector-curvature="0" />
    <path
       style="fill:#002255;stroke:none;stroke-width:0.26458332px;stroke-linecap:butt;stroke-linejoin:miter;stroke-opacity:1"
       d="m 9.455624,284.5789 c -1.725149,-0.87983 -3.782764,-1.81657 -5.376288,-2.53366 -0.131405,0.47175 -0.208339,0.7917 -0.308982,1.17414 1.736688,1.13357 3.439997,1.80779 5.1909,2.22467"
       id="path238"
       inkscape:connector-curvature="0" />
    <path
       style="fill:#d40000;stroke:none;stroke-width:0.26458332px;stroke-linecap:butt;stroke-linejoin:miter;stroke-opacity:1"
       d="m 9.290547,285.5011 c -0.293765,-0.0734 -0.479692,-0.0174 -0.741561,-0.18539 -0.06309,-0.0156 -0.04623,-0.70735 0.0618,-1.05054 -0.104595,-0.29692 0.524762,0.11602 0.926946,0.22191 -0.04706,0.30494 -0.128778,0.63494 -0.207275,0.90968"
       id="path234"
       inkscape:connector-curvature="0"
       sodipodi:nodetypes="cccc" />
    <path
       style="fill:#002255;stroke:none;stroke-width:0.26458332px;stroke-linecap:butt;stroke-linejoin:miter;stroke-opacity:1"
       d="m 8.916591,287.95275 c -2.323482,1.29836 -3.602405,1.76511 -5.26983,2.6822 0.165301,0.48304 0.488791,0.71097 0.679761,0.98874 1.946053,-1.16108 3.879577,-2.08124 5.376289,-2.90443"
       id="path240"
       inkscape:connector-curvature="0"
       sodipodi:nodetypes="cccc" />
    <path
       style="fill:#d40000;stroke:none;stroke-width:0.26458332px;stroke-linecap:butt;stroke-linejoin:miter;stroke-opacity:1"
       d="m 9.270236,287.85411 c -0.42735,0.0729 -0.582451,0.23298 -0.926947,0.37078 -0.175687,0.23652 0.391071,0.56488 0.556169,0.80335 0.201367,0.32276 1.429779,-0.82588 1.112334,-0.67976"
       id="path236"
       inkscape:connector-curvature="0"
       sodipodi:nodetypes="cccc" />
    <path
       style="fill:none;stroke:#483737;stroke-width:0.26458332px;stroke-linecap:butt;stroke-linejoin:miter;stroke-opacity:1"
       d="m 10.477492,286.08498 c 0.108582,0.18364 0.22297,0.37362 0.305876,0.52436 -0.09105,-0.11814 -0.14099,-0.23161 -0.196634,-0.32773 -0.07952,0.10229 -0.102959,0.16915 -0.152938,0.25126 0.176813,-0.15055 0.392614,-0.29339 0.568057,-0.40419"
       id="path268"
       inkscape:connector-curvature="0" />
  </g>
</svg>
