<?xml version="1.0" encoding="UTF-8" standalone="no"?>
<!-- Created with Inkscape (http://www.inkscape.org/) -->

<svg
   xmlns:dc="http://purl.org/dc/elements/1.1/"
   xmlns:cc="http://creativecommons.org/ns#"
   xmlns:rdf="http://www.w3.org/1999/02/22-rdf-syntax-ns#"
   xmlns:svg="http://www.w3.org/2000/svg"
   xmlns="http://www.w3.org/2000/svg"
   xmlns:sodipodi="http://sodipodi.sourceforge.net/DTD/sodipodi-0.dtd"
   xmlns:inkscape="http://www.inkscape.org/namespaces/inkscape"
   width="120mm"
   height="50mm"
   viewBox="0 0 120 50"
   version="1.1"
   id="svg8"
   inkscape:version="0.92.0 r15299"
   sodipodi:docname="geoscape.svg">
  <defs
     id="defs2">
    <clipPath
       clipPathUnits="userSpaceOnUse"
       id="clipPath23">
      <rect
         id="rect25"
         width="281.97021"
         height="144.3869"
         x="-117.17262"
         y="146.56548"
         style="stroke-width:0.26458332" />
    </clipPath>
    <clipPath
       clipPathUnits="userSpaceOnUse"
       id="clipPath42">
      <rect
         id="rect44"
         width="118.66766"
         height="118.66766"
         x="251.23335"
         y="106.70409"
         style="stroke-width:0.26458332" />
    </clipPath>
    <clipPath
       clipPathUnits="userSpaceOnUse"
       id="clipPath23-9">
      <rect
         id="rect25-9"
         width="281.97021"
         height="144.3869"
         x="-117.17262"
         y="146.56548"
         style="stroke-width:0.26458332" />
    </clipPath>
  </defs>
  <sodipodi:namedview
     id="base"
     pagecolor="#ffffff"
     bordercolor="#666666"
     borderopacity="1.0"
     inkscape:pageopacity="0.0"
     inkscape:pageshadow="2"
     inkscape:zoom="2.0060323"
     inkscape:cx="272.3145"
     inkscape:cy="112.52761"
     inkscape:document-units="mm"
     inkscape:current-layer="layer1"
     showgrid="false"
     inkscape:snap-global="false"
     inkscape:window-width="1366"
     inkscape:window-height="705"
     inkscape:window-x="-8"
     inkscape:window-y="-8"
     inkscape:window-maximized="1" />
  <metadata
     id="metadata5">
    <rdf:RDF>
      <cc:Work
         rdf:about="">
        <dc:format>image/svg+xml</dc:format>
        <dc:type
           rdf:resource="http://purl.org/dc/dcmitype/StillImage" />
        <dc:title></dc:title>
      </cc:Work>
    </rdf:RDF>
  </metadata>
  <g
     inkscape:label="Layer 1"
     inkscape:groupmode="layer"
     id="layer1"
     transform="translate(0,-247)">
    <path
       style="fill:#000000;stroke:#000000;stroke-width:0.26458332px;stroke-linecap:butt;stroke-linejoin:miter;stroke-opacity:1"
       d="m 86.401542,271.31944 c 0.22104,4.6622 0.52879,10.18849 0.12359,14.64575 3.48517,-1.69259 1.4064,-8.26541 1.29772,-11.9885 5.18589,5.3954 11.49465,-1.52849 8.15713,-5.3145 -2.99109,-3.18427 -10.65905,-0.27392 -8.34251,1.97749 11.10952,-6.63916 7.28139,7.50549 -0.67976,0.61797"
       id="path174"
       inkscape:connector-curvature="0"
       sodipodi:nodetypes="cccccc" />
    <path
       style="fill:#000000;stroke:#000000;stroke-width:0.26458332px;stroke-linecap:butt;stroke-linejoin:miter;stroke-opacity:1"
       d="m 38.527792,274.6142 c 3.14854,-0.0542 4.9912,-1.12002 5.94275,-3.67052 -0.66547,4.17225 -2.2531,4.35269 -4.0201,4.45706 3.29181,4.91446 6.13614,-0.93969 6.46711,-3.9327 0.93974,9.48333 -5.14721,11.54389 -8.38976,3.14616"
       id="path84"
       inkscape:connector-curvature="0"
       sodipodi:nodetypes="ccccc" />
    <path
       style="fill:#000000;stroke:#000000;stroke-width:0.26458332px;stroke-linecap:butt;stroke-linejoin:miter;stroke-opacity:1"
       d="m 46.305792,273.91505 c 0.73268,9.54304 10.25502,5.2378 4.89403,-2.84028 2.21623,6.71791 -1.88007,9.65298 -4.80663,3.18986 0.64098,-0.91225 0.98393,-2.19313 1.39829,-3.14616"
       id="path86"
       inkscape:connector-curvature="0"
       sodipodi:nodetypes="cccc" />
    <path
       style="fill:#000000;stroke:#000000;stroke-width:0.26458332px;stroke-linecap:butt;stroke-linejoin:miter;stroke-opacity:1"
       d="m 40.450442,275.40074 c -1.00904,0 -1.07735,0.47137 0,0 -4.78624,-3.97086 8.91902,-7.55224 2.09744,-1.92265 1.87177,-1.02419 2.33719,-2.82674 1.66047,-4.28228 -3.59771,-1.42517 -8.72579,5.83586 -3.75791,6.20493"
       id="path90"
       inkscape:connector-curvature="0"
       sodipodi:nodetypes="ccccc" />
    <path
       style="fill:#000000;stroke:#000000;stroke-width:0.26458332px;stroke-linecap:butt;stroke-linejoin:miter;stroke-opacity:1"
       d="m 39.576502,271.38064 c -0.95724,3.0803 0.50907,3.28331 2.79659,2.97138 -1.06009,0.80496 -1.962,0.76846 -3.32094,0.83023 -2.90931,-3.62626 1.72387,-6.86082 5.2436,-6.16122"
       id="path98"
       inkscape:connector-curvature="0"
       sodipodi:nodetypes="cccc" />
    <path
       style="fill:#000000;stroke:#000000;stroke-width:0.26458332px;stroke-linecap:butt;stroke-linejoin:miter;stroke-opacity:1"
       d="m 40.843712,269.45799 c 7.69291,-3.27285 4.78295,6.69199 -0.52436,6.20493 3.48534,-1.15225 5.85566,-6.24862 0.69915,-6.24862"
       id="path102"
       inkscape:connector-curvature="0"
       sodipodi:nodetypes="ccc" />
    <path
       style="fill:#000000;stroke:#000000;stroke-width:0.26458332px;stroke-linecap:butt;stroke-linejoin:miter;stroke-opacity:1"
       d="m 39.707602,270.11344 c -4.45345,3.20469 0.80879,12.75652 5.1562,9.1763 -4.3238,0.37646 -7.72402,-5.28295 -5.50578,-8.69563"
       id="path104"
       inkscape:connector-curvature="0"
       sodipodi:nodetypes="ccc" />
    <path
       style="fill:#000000;stroke:#000000;stroke-width:0.26458332px;stroke-linecap:butt;stroke-linejoin:miter;stroke-opacity:1"
       d="m 41.673942,270.6815 c 2.21169,-0.63997 2.67439,0.42657 2.49071,2.44701 1.51262,-8.43481 -9.74726,1.96251 -3.10246,1.66048 -1.7568,-0.2277 -1.87583,-1.84151 -1.2235,-3.14616"
       id="path108"
       inkscape:connector-curvature="0" />
    <path
       style="fill:#000000;stroke:#000000;stroke-width:0.26458332px;stroke-linecap:butt;stroke-linejoin:miter;stroke-opacity:1"
       d="m 48.228452,278.10993 c -4.73676,-4.56224 1.44021,-13.75814 4.02009,-5.1562 -2.3288,-8.44883 -7.69451,-3.46965 -5.81166,3.49573"
       id="path114"
       inkscape:connector-curvature="0"
       sodipodi:nodetypes="ccc" />
    <path
       style="fill:#000000;stroke:#000000;stroke-width:0.26458332px;stroke-linecap:butt;stroke-linejoin:miter;stroke-opacity:1"
       d="m 46.830152,271.68652 c 0.33389,2.80228 7.76287,4.29726 9.65697,1.74786 1.71889,-1.04347 3.53353,-5.30072 2.5781,-4.58814 -2.51696,6.47179 -11.66841,6.14326 -11.7544,0.87393"
       id="path118"
       inkscape:connector-curvature="0"
       sodipodi:nodetypes="cccc" />
    <path
       style="fill:#000000;stroke:#000000;stroke-width:0.26458332px;stroke-linecap:butt;stroke-linejoin:miter;stroke-opacity:1"
       d="m 59.065222,269.23951 c 3.18968,3.9587 2.90328,8.82624 -2.05375,8.95781 3.1585,1.062 9.86757,-5.20937 2.09745,-9.78805"
       id="path120"
       inkscape:connector-curvature="0"
       sodipodi:nodetypes="ccc" />
    <path
       style="fill:#000000;stroke:#000000;stroke-width:0.26458332px;stroke-linecap:butt;stroke-linejoin:miter;stroke-opacity:1"
       d="m 51.986362,274.5268 c 0.98735,-3.77099 -3.92889,-7.60208 -4.63185,-2.44701 0.14535,-6.60031 3.70395,-1.42526 5.2436,2.31593"
       id="path122"
       inkscape:connector-curvature="0"
       sodipodi:nodetypes="ccc" />
    <path
       style="fill:#000000;stroke:#000000;stroke-width:0.26458332px;stroke-linecap:butt;stroke-linejoin:miter;stroke-opacity:1"
       d="m 60.507212,277.80405 c -1.54321,-0.17685 -5.61035,-4.42792 -7.25365,-5.98644 1.19151,4.25905 6.63087,7.06929 6.16123,6.5982 -8.19331,-1.7278 -7.49249,-11.6804 -5.41838,-7.16625 1.28303,2.27567 4.93914,5.1842 7.29734,5.50578"
       id="path124"
       inkscape:connector-curvature="0"
       sodipodi:nodetypes="ccccc" />
    <path
       style="fill:#000000;stroke:#000000;stroke-width:0.26458332px;stroke-linecap:butt;stroke-linejoin:miter;stroke-opacity:1"
       d="m 52.772902,274.5705 c 1.50539,9.5214 12.67024,3.4021 9.39478,-3.23355 1.61985,7.54668 -7.14983,8.20688 -8.78303,2.49071"
       id="path126"
       inkscape:connector-curvature="0"
       sodipodi:nodetypes="ccc" />
    <path
       style="fill:#000000;stroke:#000000;stroke-width:0.26458332px;stroke-linecap:butt;stroke-linejoin:miter;stroke-opacity:1"
       d="m 53.909012,275.18225 c 3.14546,-2.54607 7.02934,-10.58013 7.64692,-1.17981 -0.31197,-10.52446 -4.18619,-0.95954 -7.12256,0.65546"
       id="path128"
       inkscape:connector-curvature="0"
       sodipodi:nodetypes="ccc" />
    <path
       style="fill:none;stroke:#000000;stroke-width:0.26458332px;stroke-linecap:butt;stroke-linejoin:miter;stroke-opacity:1"
       d="m 54.345982,272.29827 c -1.01463,-0.0165 -0.87502,0.0954 -1.00502,1.04872 -0.40165,-1.1343 0.19414,-1.45952 0.43696,-1.87895"
       id="path130"
       inkscape:connector-curvature="0" />
    <path
       style="fill:#000000;stroke:#000000;stroke-width:0.26458332px;stroke-linecap:butt;stroke-linejoin:miter;stroke-opacity:1"
       d="m 57.448442,272.56046 c 0.93916,-5.76338 4.70871,-3.29354 5.06881,0.43696 0.71901,-1.97693 -2.92467,-6.57875 -3.93269,-3.9327 2.07584,-2.72757 -3.41744,3.76483 -4.89403,4.93773"
       id="path136"
       inkscape:connector-curvature="0"
       sodipodi:nodetypes="cccc" />
    <path
       style="fill:#000000;stroke:#000000;stroke-width:0.26458332px;stroke-linecap:butt;stroke-linejoin:miter;stroke-opacity:1"
       d="m 58.322382,271.07476 c 1.45629,-3.71169 4.07295,3.12217 3.18985,5.331 3.31673,-1.12498 5.24361,-2.8829 5.24361,-6.33602 -0.42956,2.0705 1.79996,-2.23302 -4.98143,3.93271 1.29526,-3.31954 -2.93096,-8.07882 -4.06379,-3.32095"
       id="path138"
       inkscape:connector-curvature="0"
       sodipodi:nodetypes="ccccc" />
    <path
       style="fill:#000000;stroke:#000000;stroke-width:0.26458332px;stroke-linecap:butt;stroke-linejoin:miter;stroke-opacity:1"
       d="m 70.470052,269.28321 c -9.99884,-0.95444 -8.76023,15.9477 0.96133,9.65696 1.34794,-3.74222 -1.75256,0.22384 -3.62683,-1.00503 -3.51168,-1.49663 -1.65869,-9.50864 2.53441,-6.86037 2.26943,0.58745 1.2436,-1.0499 0.13109,-1.79156 z"
       id="path140"
       inkscape:connector-curvature="0"
       sodipodi:nodetypes="ccccc" />
    <path
       style="fill:#000000;stroke:#000000;stroke-width:0.26458332px;stroke-linecap:butt;stroke-linejoin:miter;stroke-opacity:1"
       d="m 70.688532,269.89496 c -2.89906,-1.83099 -5.48155,2.68799 -5.1999,5.68056 0.30141,-3.31555 2.13313,-4.90157 5.41839,-4.19488 3.4587,-0.45369 -0.60848,-3.30203 -2.22853,-1.61677 1.654,-0.0818 1.92011,-0.4556 2.05374,0.52436"
       id="path142"
       inkscape:connector-curvature="0"
       sodipodi:nodetypes="ccccc" />
    <path
       style="fill:#000000;stroke:#000000;stroke-width:0.26458332px;stroke-linecap:butt;stroke-linejoin:miter;stroke-opacity:1"
       d="m 64.439912,278.24102 c 2.86379,4.57849 9.35304,0.98979 6.90408,-0.91763 -2.90294,3.21005 -4.58484,1.82941 -6.33602,-1.83526"
       id="path144"
       inkscape:connector-curvature="0"
       sodipodi:nodetypes="ccc" />
    <path
       style="fill:#000000;stroke:#000000;stroke-width:0.26458332px;stroke-linecap:butt;stroke-linejoin:miter;stroke-opacity:1"
       d="m 85.747072,271.78255 c -5.31205,9.06334 -1.90149,-1.31089 -9.29058,-1.40693 -4.01406,-0.0522 -3.22562,5.07591 -5.59317,7.03516 -0.11117,0.87888 -0.21638,1.79978 -0.39327,2.57811 1.75786,-0.73082 2.17502,-1.74517 2.84029,-3.40834 0.65781,7.02094 5.68056,3.28816 5.68056,-2.35962 0.19982,8.13466 -7.42403,4.12412 -3.14616,-2.01005 5.97119,-1.03008 2.50835,11.18371 9.88953,6.13343"
       id="path146"
       inkscape:connector-curvature="0"
       sodipodi:nodetypes="cscccccc" />
    <path
       style="fill:#000000;stroke:#000000;stroke-width:0.26458332px;stroke-linecap:butt;stroke-linejoin:miter;stroke-opacity:1"
       d="m 76.019522,271.77391 c -3.52257,-0.27074 -2.76166,6.63395 0.34958,7.34105 -1.8803,0.12017 -2.82584,-2.4037 -3.36464,-4.0201"
       id="path148"
       inkscape:connector-curvature="0"
       sodipodi:nodetypes="ccc" />
    <path
       style="fill:#000000;stroke:#000000;stroke-width:0.26458332px;stroke-linecap:butt;stroke-linejoin:miter;stroke-opacity:1"
       d="m 73.222942,276.53685 c 0.45847,8.3719 7.7645,1.42897 6.46711,-4.02009 -0.18638,-0.14143 -0.37037,-0.0855 -0.56806,-0.13109 0.0867,2.82444 -0.86056,6.33602 -4.15118,6.33602 -1.7907,-2.96131 -0.38387,-9.58949 3.75791,-6.5982 -2.19296,-2.57253 -6.83988,1.34235 -6.07383,4.15118"
       id="path150"
       inkscape:connector-curvature="0" />
    <path
       style="fill:#000000;stroke:#000000;stroke-width:0.26458332px;stroke-linecap:butt;stroke-linejoin:miter;stroke-opacity:1"
       d="m 76.631282,272.07979 c -1.10197,0.39874 -1.58481,0.85955 -2.01005,1.92265 0.82043,-6.49126 6.82148,-1.73629 4.50076,2.27223 0.16425,-2.03666 -0.27403,-3.29542 -1.44199,-4.32597"
       id="path152"
       inkscape:connector-curvature="0" />
    <path
       style="fill:#000000;stroke:#000000;stroke-width:0.26458332px;stroke-linecap:butt;stroke-linejoin:miter;stroke-opacity:1"
       d="m 74.927112,272.25458 c 6.73434,-3.64039 4.00982,7.62765 0.13109,7.12255 -0.0521,0.35642 0.088,0.64529 0.13109,0.96133 3.36006,0.19172 6.27539,-4.2424 5.41839,-7.38473 -1.39363,-1.5062 -3.22354,-1.73023 -5.11251,-1.96635"
       id="path154"
       inkscape:connector-curvature="0"
       sodipodi:nodetypes="ccccc" />
    <path
       style="fill:#000000;stroke:#000000;stroke-width:0.26458332px;stroke-linecap:butt;stroke-linejoin:miter;stroke-opacity:1"
       d="m 73.528822,277.32339 c 1.77101,3.18849 6.49194,2.30492 6.90407,-2.22853 -0.59423,2.57507 -4.53702,5.57723 -6.4671,3.23356"
       id="path156"
       inkscape:connector-curvature="0"
       sodipodi:nodetypes="ccc" />
    <path
       style="fill:#000000;stroke:#000000;stroke-width:0.26458332px;stroke-linecap:butt;stroke-linejoin:miter;stroke-opacity:1"
       d="m 75.276682,278.45951 c 1.32349,0.42599 2.57395,-1.15721 3.18986,-2.01005 -0.59055,1.85834 -1.74168,2.94431 -3.75791,2.27223"
       id="path158"
       inkscape:connector-curvature="0"
       sodipodi:nodetypes="ccc" />
    <path
       style="fill:#aa00d4;stroke:none;stroke-width:0.30459583px;stroke-linecap:butt;stroke-linejoin:miter;stroke-opacity:1"
       d="m 85.485782,272.16649 c 0.032,4.44244 -0.64973,14.9347 0.78943,13.53938 1.4133,2.08117 0.64363,-15.0378 0.4858,-13.12266"
       id="path160"
       inkscape:connector-curvature="0"
       sodipodi:nodetypes="ccc" />
    <path
       style="fill:#aa0044;stroke:none;stroke-width:0.28485039px;stroke-linecap:butt;stroke-linejoin:miter;stroke-opacity:1"
       d="m 87.297592,270.9286 c -0.72855,-0.0502 -1.57307,-0.20372 -2.37916,-0.16371 0.13011,1.68018 0.58686,1.80887 1.89252,1.71902 0.91466,0.27202 0.42067,-0.93078 0.70293,-1.55531"
       id="path162"
       inkscape:connector-curvature="0" />
    <path
       style="fill:#e9afc6;stroke:none;stroke-width:0.28862667px;stroke-linecap:butt;stroke-linejoin:miter;stroke-opacity:1"
       d="m 87.204902,269.95992 c 1.84355,-1.03612 0.46887,-1.09066 0.40239,-1.8295 1.55661,-0.83347 3.15483,-2.69948 0.87187,-1.89725 1.26047,-0.15327 1.64272,-0.82473 2.28027,-1.35519 -0.29671,-0.19952 -0.67311,0 -0.93894,0 2.16868,-1.43162 1.42312,-2.91793 -0.53653,-1.28742 0.0708,-0.84639 -0.71912,-0.96873 -1.006,-1.35519 -0.38749,0.27686 -0.21779,0.4841 -0.33533,0.74535"
       id="path172"
       inkscape:connector-curvature="0"
       sodipodi:nodetypes="cccccccc" />
    <path
       style="fill:#de87aa;stroke:none;stroke-width:0.27060014px;stroke-linecap:butt;stroke-linejoin:miter;stroke-opacity:1"
       d="m 87.266692,262.79796 c -0.21979,-0.39711 -0.6667,-0.85253 -0.80335,-1.55134 2.54889,1.06646 2.70265,4.92164 0.61796,8.40307 -0.66303,0.12929 -0.96451,-0.21932 -1.42132,-0.32319"
       id="path170"
       inkscape:connector-curvature="0" />
    <path
       style="fill:#d35f8d;stroke:none;stroke-width:0.26685321px;stroke-linecap:butt;stroke-linejoin:miter;stroke-opacity:1"
       d="m 85.845372,269.1555 c 0.46995,-1.14352 1.03611,-3.73904 -0.0618,-1.25723 1.85642,-3.36167 3.03383,-2.77945 1.29773,-3.52022 -0.14419,-10e-6 -0.28838,0 -0.43257,0 1.99865,-0.38635 2.96807,-2.66238 0.61796,-1.06864 0.19318,-1.48529 0.4862,-1.19105 -1.05054,-0.56576 -0.008,-1.19311 -0.21817,-0.77836 -1.29772,-0.62861 -0.48483,2.29349 -0.57432,5.2463 0.24718,7.10332"
       id="path168"
       inkscape:connector-curvature="0"
       sodipodi:nodetypes="cccccccc" />
    <path
       style="fill:#a02c5a;stroke:none;stroke-width:0.27850661px;stroke-linecap:butt;stroke-linejoin:miter;stroke-opacity:1"
       d="m 85.278712,269.27239 c -0.42539,-1.73635 -0.1033,-3.3753 0.25768,-4.66348 -0.34496,0.42491 -0.37915,0.68728 -0.57977,1.05093 -0.12551,-0.84508 0.14131,-1.44933 0.25767,-2.10185 -0.14937,0.52233 -0.30317,0.7507 -0.45094,1.11661 -0.0527,-2.75103 2.07135,-5.19902 -0.70862,-2.36458 -0.7823,-1.20412 -0.42412,-0.72756 -1.22399,0.26273 -2.8857,-1.34941 -1.9249,0.11471 -0.25767,1.24798 -1.58632,0.67931 -0.11134,1.08639 1.15955,1.90479 -1.74188,0.4989 -0.60876,0.97342 0.70863,1.5107 -0.65057,0.86982 -0.0931,1.3228 0.38652,2.16753"
       id="path166"
       inkscape:connector-curvature="0" />
    <path
       style="fill:#550022;stroke:none;stroke-width:0.26458332px;stroke-linecap:butt;stroke-linejoin:miter;stroke-opacity:1"
       d="m 84.856632,271.13405 c -0.0597,-0.7063 -0.0924,-1.4146 -0.1236,-2.10108 0.90243,0.0311 2.11484,0.25496 2.78084,0.37078 -0.11963,0.7501 0.10451,1.56971 0.18539,2.16288"
       id="path164"
       inkscape:connector-curvature="0" />
    <path
       style="fill:#000000;stroke:#000000;stroke-width:0.26458332px;stroke-linecap:butt;stroke-linejoin:miter;stroke-opacity:1"
       d="m 87.019502,272.55537 c 0.62668,4.79048 1.66111,15.5194 -1.29772,12.54467 3.11045,4.49486 2.98354,-8.25735 1.42132,-11.61772"
       id="path176"
       inkscape:connector-curvature="0"
       sodipodi:nodetypes="ccc" />
    <path
       style="fill:none;stroke:#000000;stroke-width:0.26458332px;stroke-linecap:butt;stroke-linejoin:miter;stroke-opacity:1"
       d="m 87.081302,286.02699 c 1.74607,-1.49342 1.52283,-3.08552 1.29772,-5.56168"
       id="path178"
       inkscape:connector-curvature="0" />
    <path
       style="fill:#000000;stroke:#000000;stroke-width:0.30728945px;stroke-linecap:butt;stroke-linejoin:miter;stroke-opacity:1"
       d="m 98.174282,275.76426 c 4.171338,-0.0552 6.612588,-1.14033 7.873248,-3.73708 -0.88165,4.24791 -2.98502,4.43162 -5.32603,4.53788 4.3517,4.98781 1.47685,1.58803 7.56163,0.34915 0.88181,5.41339 -9.225988,6.60036 -10.108848,-1.14995"
       id="path84-7"
       inkscape:connector-curvature="0"
       sodipodi:nodetypes="ccccc" />
    <path
       style="fill:#000000;stroke:#000000;stroke-width:0.30728945px;stroke-linecap:butt;stroke-linejoin:miter;stroke-opacity:1"
       d="m 100.7215,276.56506 c -1.336828,0 -1.427328,0.47992 0,0 -6.341038,-4.04286 11.81635,-7.68918 2.77879,-1.95751 2.47981,-1.04276 3.09642,-2.878 2.19987,-4.35993 -4.76642,-1.45101 -11.560348,5.94168 -4.97866,6.31744"
       id="path90-7"
       inkscape:connector-curvature="0"
       sodipodi:nodetypes="ccccc" />
    <path
       style="fill:#000000;stroke:#000000;stroke-width:0.30728945px;stroke-linecap:butt;stroke-linejoin:miter;stroke-opacity:1"
       d="m 99.563662,272.47207 c -1.2682,3.13615 0.674438,3.34284 3.705058,3.02525 -1.40446,0.81956 -2.59935,0.7824 -4.399738,0.84529 -3.8544,-3.69201 2.283858,-6.98522 6.946968,-6.27294"
       id="path98-8"
       inkscape:connector-curvature="0"
       sodipodi:nodetypes="cccc" />
    <path
       style="fill:#000000;stroke:#000000;stroke-width:0.30728945px;stroke-linecap:butt;stroke-linejoin:miter;stroke-opacity:1"
       d="m 101.24252,270.51456 c 10.19195,-3.3322 6.33669,6.81332 -0.69469,6.31743 4.61754,-1.17314 7.75786,-6.36192 0.92626,-6.36192"
       id="path102-0"
       inkscape:connector-curvature="0"
       sodipodi:nodetypes="ccc" />
    <path
       style="fill:#000000;stroke:#000000;stroke-width:0.30728945px;stroke-linecap:butt;stroke-linejoin:miter;stroke-opacity:1"
       d="m 99.737352,271.18189 c -5.90015,3.2628 1.071518,12.98782 6.831188,9.34268 -5.72839,0.38329 -10.233158,-5.37874 -7.294328,-8.85329"
       id="path104-3"
       inkscape:connector-curvature="0"
       sodipodi:nodetypes="ccc" />
    <path
       style="fill:#000000;stroke:#000000;stroke-width:0.30728945px;stroke-linecap:butt;stroke-linejoin:miter;stroke-opacity:1"
       d="m 102.34245,271.76025 c 2.93016,-0.65157 3.54317,0.43431 3.29982,2.49138 2.00399,-8.58775 -12.913648,1.99809 -4.11029,1.69059 -2.327498,-0.23183 -2.485188,-1.8749 -1.620958,-3.20321"
       id="path108-3"
       inkscape:connector-curvature="0" />
    <path
       style="fill:#000000;stroke:#000000;stroke-width:0.26458332px;stroke-linecap:butt;stroke-linejoin:miter;stroke-opacity:1"
       d="m 87.019512,274.71824 c 3.34762,3.39664 6.15698,1.66292 11.1906,-0.09 -4.36792,0.76568 -4.11192,1.43088 -6.86485,-0.40441"
       id="path214"
       inkscape:connector-curvature="0"
       sodipodi:nodetypes="ccc" />
    <path
       style="fill:#000000;stroke:#000000;stroke-width:0.26458332px;stroke-linecap:butt;stroke-linejoin:miter;stroke-opacity:1"
       d="m 88.873402,274.22387 c -0.52313,0.13573 -0.76109,-0.0846 -1.11234,-0.12359 0.34572,1.11336 1.33106,0.58234 1.97749,0.86515"
       id="path216"
       inkscape:connector-curvature="0" />
    <path
       style="fill:#999999;stroke:none;stroke-width:0.26458332px;stroke-linecap:butt;stroke-linejoin:miter;stroke-opacity:1"
       d="m 26.459013,270.13107 c -0.297929,-0.25843 -0.263308,-0.45138 -0.432575,-0.74155 -0.469069,-0.0936 -0.988354,-0.37652 -1.297724,-0.49438 -0.253272,0.41858 -0.192058,0.69141 -0.308982,1.11234 0.408631,-0.13265 0.823938,0.0915 1.112336,0.12359 0.19724,0.3326 0.19458,0.50591 0.308982,0.80336 1.344635,0.5122 2.664451,0.99183 3.954971,1.54491 0.86709,0.0439 1.890151,-0.0269 2.657246,-0.0618 -2.146024,-0.94275 -4.787428,-1.80037 -5.994254,-2.28647 z"
       id="path226"
       inkscape:connector-curvature="0"
       sodipodi:nodetypes="ccccccccc" />
    <path
       style="fill:#5aa02c;stroke:none;stroke-width:0.26458332px;stroke-linecap:butt;stroke-linejoin:miter;stroke-opacity:1"
       d="m 31.711709,270.50185 c -0.670139,-1.94221 -3.066709,-1.31407 -2.584847,0.70975 -4.364599,1.98942 -0.879149,1.33697 0.48377,2.13289 -1.422006,0.2391 -1.99325,0.87285 -2.058669,2.31206 0.996868,0.9804 1.68789,1.81762 1.68789,3.18782 0.565905,-0.12117 0.637182,-0.63718 0.926947,-0.92695 2.629831,1.79209 5.769792,-1.57443 5.438082,-3.3988 2.53606,-0.56495 1.44098,-2.94416 -0.37078,-3.89318 0.42312,-2.721 -1.32478,-2.36897 -3.21341,-1.85389"
       id="path276"
       inkscape:connector-curvature="0"
       sodipodi:nodetypes="ccccccccc" />
    <path
       style="fill:#808080;stroke:none;stroke-width:0.26458332px;stroke-linecap:butt;stroke-linejoin:miter;stroke-opacity:1"
       d="m 31.773505,268.89514 c -0.769906,-0.0376 -1.938773,0.18539 -2.59545,0.18539 -1.175492,0.59698 -1.986897,0.92952 -3.337005,1.29773 0.02819,0.91371 -0.488998,1.14751 -0.741557,1.60671 -0.329243,0.0596 -0.446275,0.22313 -0.617964,0.30898 0.113979,0.19766 0.04123,0.41228 0.0618,0.61796 0.85708,0.0803 1.164342,-0.48387 1.606703,-0.80335 -0.07909,-0.28631 0.04536,-0.54426 0.0618,-0.74156 1.964271,-0.9311 3.866597,-1.70907 5.561673,-2.47186 z"
       id="path228"
       inkscape:connector-curvature="0"
       sodipodi:nodetypes="ccccccccc" />
    <path
       style="fill:#000000;stroke:none;stroke-width:0.26458332px;stroke-linecap:butt;stroke-linejoin:miter;stroke-opacity:1"
       d="m 24.852307,269.88389 c -0.109678,0.25712 -0.04117,0.53526 -0.0618,0.80335 0.144193,0 0.288386,0 0.432579,0 0.108268,-0.30195 0.04119,-0.61777 0.0618,-0.92695"
       id="path230"
       inkscape:connector-curvature="0" />
    <path
       style="fill:#000000;stroke:none;stroke-width:0.26458332px;stroke-linecap:butt;stroke-linejoin:miter;stroke-opacity:1"
       d="m 25.284882,272.04676 c 0.05647,-0.26977 -0.145748,-0.63157 -0.185391,-0.80335 -0.144191,0 -0.288382,0 -0.432573,0 0.06623,0.39629 0.155777,0.54522 0.247186,0.86515"
       id="path232"
       inkscape:connector-curvature="0" />
    <path
       style="fill:#002255;stroke:none;stroke-width:0.26458332px;stroke-linecap:butt;stroke-linejoin:miter;stroke-opacity:1"
       d="m 24.975899,268.95694 c -1.725149,-0.87983 -3.782764,-1.81657 -5.376288,-2.53366 -0.131405,0.47175 -0.208339,0.7917 -0.308982,1.17414 1.736688,1.13357 3.439997,1.80779 5.1909,2.22467"
       id="path238"
       inkscape:connector-curvature="0" />
    <path
       style="fill:#447821;stroke:none;stroke-width:0.26458332px;stroke-linecap:butt;stroke-linejoin:miter;stroke-opacity:1"
       d="m 18.549072,263.33346 c 2.362404,0.87686 1.946511,3.45358 -0.617966,3.33701 2.876279,0.56577 1.884153,2.83399 -0.30898,3.4606 3.084218,-0.2455 5.182234,3.2519 1.54491,4.07857 2.032488,-0.39044 2.568806,-0.36906 2.842636,1.7303 1.446257,-1.80688 3.115897,-1.95492 4.14036,-0.18539 0.892943,-2.13021 2.449739,-1.50939 3.769582,-0.55617 -0.485573,1.48085 0.04411,2.4949 0.741557,3.4606 -1.676826,2.20674 -4.298595,1.69706 -5.747067,-0.0618 -2.415262,4.43238 -7.235907,3.11727 -7.971739,-1.29772 -3.273802,1.87373 -4.902759,-3.01621 -2.780839,-5.00551 -3.559727,0.28021 -3.699408,-4.13589 -0.494371,-4.57294 -4.0455756,-0.56448 -3.513955,-4.18826 -0.679761,-5.74706 -1.35264,-3.09915 -1.006417,-4.33266 1.915689,-4.07857 0.94796,-3.00806 3.572568,-2.48156 5.00551,-0.74156 1.542435,-1.54666 3.186135,-1.15677 4.449343,0.18539 2.418934,-1.32604 2.578723,0.82417 2.348264,1.7921 1.258173,2.16819 -0.647544,2.32457 -2.286468,2.10108 0.661381,2.67264 -1.132164,2.86373 -2.780839,1.79209 0.212358,-0.28629 0.217091,-0.52101 0.308982,-0.74155 -0.737891,1.78299 -1.346008,1.80967 -2.657246,1.05054"
       id="path270"
       inkscape:connector-curvature="0" />
    <path
       style="fill:#d40000;stroke:none;stroke-width:0.26458332px;stroke-linecap:butt;stroke-linejoin:miter;stroke-opacity:1"
       d="m 24.810822,269.87914 c -0.293765,-0.0734 -0.479692,-0.0174 -0.741561,-0.18539 -0.06309,-0.0156 -0.04623,-0.70735 0.0618,-1.05054 -0.104596,-0.29692 0.524761,0.11602 0.926946,0.22191 -0.04706,0.30494 -0.128779,0.63494 -0.207276,0.90968"
       id="path234"
       inkscape:connector-curvature="0"
       sodipodi:nodetypes="cccc" />
    <path
       style="fill:#002255;stroke:none;stroke-width:0.26458332px;stroke-linecap:butt;stroke-linejoin:miter;stroke-opacity:1"
       d="m 24.436866,272.33079 c -2.323482,1.29836 -3.602405,1.76511 -5.26983,2.6822 0.165301,0.48304 0.488791,0.71097 0.679761,0.98874 1.946053,-1.16108 3.879577,-2.08124 5.376289,-2.90443"
       id="path240"
       inkscape:connector-curvature="0"
       sodipodi:nodetypes="cccc" />
    <path
       style="fill:#d40000;stroke:none;stroke-width:0.26458332px;stroke-linecap:butt;stroke-linejoin:miter;stroke-opacity:1"
       d="m 24.790511,272.23215 c -0.42735,0.0729 -0.582451,0.23298 -0.926947,0.37078 -0.175687,0.23652 0.391071,0.56488 0.556168,0.80335 0.201367,0.32276 1.429781,-0.82588 1.112336,-0.67976"
       id="path236"
       inkscape:connector-curvature="0"
       sodipodi:nodetypes="cccc" />
    <path
       style="fill:none;stroke:#483737;stroke-width:0.26458332px;stroke-linecap:butt;stroke-linejoin:miter;stroke-opacity:1"
       d="m 25.997768,270.46302 c 0.108582,0.18364 0.222969,0.37362 0.305876,0.52436 -0.09105,-0.11814 -0.14099,-0.23161 -0.196634,-0.32773 -0.07952,0.10229 -0.102959,0.16915 -0.152938,0.25126 0.176813,-0.15055 0.392614,-0.29339 0.568057,-0.40419"
       id="path268"
       inkscape:connector-curvature="0" />
    <path
       style="fill:#447821;stroke:none;stroke-width:0.26458332px;stroke-linecap:butt;stroke-linejoin:miter;stroke-opacity:1"
       d="m 27.308477,259.71474 c -1.442738,3.82212 2.217743,3.04414 3.398803,1.17413 3.029082,0.52411 2.771512,-2.7484 -0.185387,-3.15162 -0.02324,-2.35801 -1.920177,-0.6758 -2.966228,0.24719"
       id="path272"
       inkscape:connector-curvature="0" />
    <path
       style="fill:#5aa02c;stroke:none;stroke-width:0.26458332px;stroke-linecap:butt;stroke-linejoin:miter;stroke-opacity:1"
       d="m 30.722966,258.14256 c 0.245166,-2.88317 -3.62242,-3.79282 -4.572936,-1.29772 -0.127406,0.21484 -0.124063,0.41355 -0.185387,0.61797 -2.364208,0.80929 -2.791801,1.60972 -2.657246,3.08982 1.944596,1.249 2.723046,0.60855 4.034044,-0.62051 -0.285214,0.5179 0.12965,0.64825 0.174787,0.87393 1.777211,-0.30318 1.489304,-0.42916 1.57308,-2.27222 1.236307,0.75123 1.766923,-0.53776 2.010047,-0.61176"
       id="path274"
       inkscape:connector-curvature="0" />
    <path
       style="fill:#447821;stroke:none;stroke-width:0.26458332px;stroke-linecap:butt;stroke-linejoin:miter;stroke-opacity:1"
       d="m 29.610632,279.52413 c 0.872172,0.52206 1.261096,-0.0966 1.792094,-0.30898 0.531543,1.85547 1.897769,1.0423 2.533656,-0.37078 1.73646,2.43216 2.81169,0.49538 2.90443,-1.54491 4.02518,-0.33278 1.39478,-3.26198 -1.42132,-3.64599"
       id="path278"
       inkscape:connector-curvature="0" />
    <path
       style="fill:#447821;fill-opacity:1;stroke:none;stroke-width:0.26458332px;stroke-linecap:butt;stroke-linejoin:miter;stroke-opacity:1"
       d="m 28.040588,274.39572 c 2.310506,0.40182 1.998417,4.59027 3.976395,2.14113 0.702574,-1.05386 1.777169,-3.13891 3.714219,-2.75289 -1.32899,4.09407 -3.948793,4.88337 -6.598197,4.76294"
       id="path280"
       inkscape:connector-curvature="0" />
    <path
       style="fill:#5aa02c;fill-opacity:1;stroke:none;stroke-width:0.26458332px;stroke-linecap:butt;stroke-linejoin:miter;stroke-opacity:1"
       d="m 28.302767,267.71012 c 0.04311,-0.50828 -0.454617,-0.71439 -0.611754,-0.96132 h -0.699145 c -0.437139,1.10847 1.818706,0.66361 1.310899,0.96132 z"
       id="path3954"
       inkscape:connector-curvature="0"
       sodipodi:nodetypes="cccc" />
    <path
       style="fill:#447821;fill-opacity:1;stroke:none;stroke-width:0.26458332px;stroke-linecap:butt;stroke-linejoin:miter;stroke-opacity:1"
       d="m 29.963239,268.23448 c -0.16075,-0.25093 -0.112506,-0.18784 -0.174786,-0.43696 0.249103,-0.15627 0.524644,-0.32048 0.786542,-0.34958 z"
       id="path3956"
       inkscape:connector-curvature="0"
       sodipodi:nodetypes="cccc" />
    <path
       style="fill:#447821;fill-opacity:1;stroke:none;stroke-width:0.26458332px;stroke-linecap:butt;stroke-linejoin:miter;stroke-opacity:1"
       d="m 26.904473,268.0597 c -0.03876,0.41714 0.356182,0.41554 0.52436,0.61175 0.345769,-1.05095 -0.407746,-0.4757 -0.52436,-0.61175 z"
       id="path3958"
       inkscape:connector-curvature="0" />
    <path
       style="fill:#000000;stroke:#000000;stroke-width:0.26458332px;stroke-linecap:butt;stroke-linejoin:miter;stroke-opacity:1"
       d="m 100.92663,277.236 c 3.86298,3.75522 10.63071,-5.51459 5.94274,3.14616 -2.61178,0.2409 -4.41726,1.25123 -6.11753,-2.18483"
       id="path3966"
       inkscape:connector-curvature="0"
       sodipodi:nodetypes="ccc" />
    <path
       style="fill:none;stroke:#2d5016;stroke-width:0.26458332px;stroke-linecap:butt;stroke-linejoin:miter;stroke-opacity:1"
       d="m 26.991868,276.49316 c -0.159488,0.1585 -0.181472,0.30245 -0.262181,0.43696 0.337424,0.55608 0.608219,-0.17377 0.611754,-0.17478 0.01608,0.43996 0.311077,0.19796 0.480664,0.30587 -0.153364,-0.56112 0.01814,-0.12701 0.0437,-0.30587"
       id="path3970"
       inkscape:connector-curvature="0" />
    <path
       style="fill:none;stroke:#225500;stroke-width:0.26458332px;stroke-linecap:butt;stroke-linejoin:miter;stroke-opacity:1"
       d="m 25.593574,258.8834 c -0.944901,0.29205 0.172371,0.22983 0.262178,0.34957 0.03839,0.24025 0.342842,0.30856 0.436969,0.39327"
       id="path3974"
       inkscape:connector-curvature="0" />
  </g>
</svg>